<svg width="579" height="583" viewBox="0 0 579 583" fill="none" xmlns="http://www.w3.org/2000/svg">
<path fill-rule="evenodd" clip-rule="evenodd" d="M430.184 316.859C464.353 340.026 472.303 370.322 514.947 377.27C548.82 382.806 566.702 355.493 538.273 329.091C522.76 314.695 505.835 309.319 476.085 287.223C447.496 265.992 436.539 225.968 448.567 192.688C453.055 209.453 470.025 218.246 479 230.502C486.996 241.436 488.089 255.696 477.133 272.029C494.126 290.571 525.881 294.877 555.881 317.747C588.433 342.577 583.422 378.136 560.551 396.952C533.922 418.843 476.768 404.15 456.266 389.366C457.269 371.393 429.592 317.519 430.184 316.859Z" fill="url(#paint0_linear_273_19)"/>
<path fill-rule="evenodd" clip-rule="evenodd" d="M575.335 341.734C583.946 362.053 576.702 383.671 560.551 396.974C533.922 418.866 476.768 404.173 456.266 389.389C456.54 384.719 454.854 377.657 452.257 369.73C457.861 371.598 464.011 374.013 470.845 377.111C567.089 420.483 581.189 357.406 575.335 341.734Z" fill="url(#paint1_linear_273_19)"/>
<path fill-rule="evenodd" clip-rule="evenodd" d="M265.236 218.519C256.329 228.269 252.639 239.089 252.821 250.707C261.431 281.573 414.464 445.358 409.59 479.778C353.962 452.511 233.618 462.443 168.605 493.696C178.833 369.161 185.393 268.407 265.236 218.519Z" fill="url(#paint2_linear_273_19)"/>
<path fill-rule="evenodd" clip-rule="evenodd" d="M252.821 250.661V250.707C261.431 281.573 414.464 445.358 409.59 479.778C389.544 469.96 361.069 464.971 329.838 464.06C318.061 386.883 235.691 318.089 252.775 250.661H252.821Z" fill="url(#paint3_linear_273_19)"/>
<path fill-rule="evenodd" clip-rule="evenodd" d="M265.236 218.519C257.924 226.538 254.12 235.262 253.095 244.579C215.281 281.026 248.516 378.728 238.538 471.805C212.433 476.908 188.036 484.334 168.628 493.696C178.833 369.161 185.394 268.407 265.236 218.519Z" fill="url(#paint4_linear_273_19)"/>
<path fill-rule="evenodd" clip-rule="evenodd" d="M252.799 250.639C272.982 279.295 385.308 275.332 434.238 320.344C501.734 382.441 490.982 513.697 462.029 582.81H421.345C457.929 431.827 258.175 363.215 252.799 250.639Z" fill="url(#paint5_linear_273_19)"/>
<path fill-rule="evenodd" clip-rule="evenodd" d="M441.663 582.81H421.321C457.928 431.85 258.265 363.238 252.798 250.73L252.821 250.684C285.737 316.153 362.869 316.175 412.688 375.197C460.889 432.351 456.766 512.877 441.663 582.81Z" fill="url(#paint6_linear_273_19)"/>
<path fill-rule="evenodd" clip-rule="evenodd" d="M285.146 208.269C154.915 262.507 254.416 425.084 109.447 582.81H68.3529C95.4606 546.955 117.215 478.821 82.4307 412.874C82.4307 412.874 51.7694 294.284 106.714 241.868C161.681 189.453 246.238 164.942 285.146 208.269Z" fill="url(#paint7_linear_273_19)"/>
<path fill-rule="evenodd" clip-rule="evenodd" d="M285.146 208.269C273.506 213.121 263.733 218.861 255.419 225.353L255.396 225.331C66.5761 283.418 179.358 466.52 83.7975 582.81H68.3529C95.4606 546.955 117.215 478.821 82.4307 412.874C82.4307 412.874 51.7694 294.284 106.714 241.868C161.681 189.453 246.238 164.942 285.146 208.269Z" fill="url(#paint8_linear_273_19)"/>
<path fill-rule="evenodd" clip-rule="evenodd" d="M381.276 486.043C367.449 520.28 346.674 558.003 324.646 582.81H289.452C309.361 550.076 315.83 508.936 308.678 478.07C332.573 475.108 360.797 477.819 381.276 486.043Z" fill="url(#paint9_linear_273_19)"/>
<path fill-rule="evenodd" clip-rule="evenodd" d="M381.276 486.042C367.449 520.28 346.674 558.003 324.646 582.81H319.657C359.818 514.152 310.455 487.933 310.455 487.933H310.432C309.999 484.539 309.407 481.259 308.655 478.047C332.573 475.108 360.797 477.819 381.276 486.042Z" fill="url(#paint10_linear_273_19)"/>
<path fill-rule="evenodd" clip-rule="evenodd" d="M63.7509 288.612L0.833832 326.973C0.606033 374.628 11.2213 437.408 53.9102 478.07L67.0995 443.035C55.8009 425.813 44.1378 384.218 72.7716 366.108C87.6922 341.21 64.776 314.945 63.7509 288.612Z" fill="url(#paint11_linear_273_19)"/>
<path fill-rule="evenodd" clip-rule="evenodd" d="M63.7509 288.612L45.7095 299.615C45.7095 299.615 5.45808 379.821 57.9877 467.272L67.0995 443.057C55.8009 425.836 44.1378 384.241 72.7716 366.131C87.6922 341.21 64.776 314.945 63.7509 288.612Z" fill="url(#paint12_linear_273_19)"/>
<path fill-rule="evenodd" clip-rule="evenodd" d="M293.984 76.3068L393.758 161.707L371.776 205.444C235.759 200.068 62.4755 245.559 82.4303 412.875C20.675 279.022 60.4254 140.522 197.171 100.02C171.157 74.1655 172.455 18.1506 212.41 0.154732C192.182 28.1508 207.376 59.131 235.167 70.0652C246.193 74.3933 272.867 76.2156 293.984 76.3068Z" fill="url(#paint13_linear_273_19)"/>
<path fill-rule="evenodd" clip-rule="evenodd" d="M197.195 100.02C171.158 74.1655 172.456 18.1506 212.412 0.154732C173.094 36.0097 202.001 96.1705 247.15 112.686C234.895 113.529 213.277 111.775 197.195 100.02Z" fill="url(#paint14_linear_273_19)"/>
<path fill-rule="evenodd" clip-rule="evenodd" d="M380.295 188.519L371.776 205.467C235.759 200.091 62.475 245.582 82.4299 412.897C65.8008 376.883 56.5523 340.527 54.5478 305.834C56.689 154.623 270.68 127.857 380.295 188.519Z" fill="url(#paint15_linear_273_19)"/>
<path fill-rule="evenodd" clip-rule="evenodd" d="M400.592 76.5801C400.592 76.5801 387.016 106.49 343.142 103.437L370.842 127.151C383.963 119.36 399.727 104.257 400.592 76.5801Z" fill="url(#paint16_linear_273_19)"/>
<defs>
<linearGradient id="paint0_linear_273_19" x1="259.419" y1="480.602" x2="406.857" y2="132.984" gradientUnits="userSpaceOnUse">
<stop stop-color="#421080"/>
<stop offset="1" stop-color="#FC5432"/>
</linearGradient>
<linearGradient id="paint1_linear_273_19" x1="452.469" y1="395.594" x2="599.241" y2="341.729" gradientUnits="userSpaceOnUse">
<stop stop-color="#490664"/>
<stop offset="1" stop-color="#490664" stop-opacity="0"/>
</linearGradient>
<linearGradient id="paint2_linear_273_19" x1="-108.022" y1="586.355" x2="49.6161" y2="115.077" gradientUnits="userSpaceOnUse">
<stop stop-color="#421080"/>
<stop offset="1" stop-color="#FC5432"/>
</linearGradient>
<linearGradient id="paint3_linear_273_19" x1="25.7275" y1="1096.08" x2="574.427" y2="848.776" gradientUnits="userSpaceOnUse">
<stop stop-color="#490664"/>
<stop offset="1" stop-color="#490664" stop-opacity="0"/>
</linearGradient>
<linearGradient id="paint4_linear_273_19" x1="198.55" y1="596.38" x2="251.988" y2="272.279" gradientUnits="userSpaceOnUse">
<stop stop-color="#C13110"/>
<stop offset="1" stop-color="#C13110" stop-opacity="0"/>
</linearGradient>
<linearGradient id="paint5_linear_273_19" x1="-13.1471" y1="694.661" x2="212.676" y2="156.965" gradientUnits="userSpaceOnUse">
<stop stop-color="#421080"/>
<stop offset="1" stop-color="#FC5432"/>
</linearGradient>
<linearGradient id="paint6_linear_273_19" x1="-60.3212" y1="-88.0781" x2="-134.393" y2="514.029" gradientUnits="userSpaceOnUse">
<stop stop-color="#490664"/>
<stop offset="1" stop-color="#490664" stop-opacity="0"/>
</linearGradient>
<linearGradient id="paint7_linear_273_19" x1="-180.386" y1="716.431" x2="134.392" y2="129.636" gradientUnits="userSpaceOnUse">
<stop stop-color="#421080"/>
<stop offset="1" stop-color="#FC5432"/>
</linearGradient>
<linearGradient id="paint8_linear_273_19" x1="-114.047" y1="354.396" x2="178.92" y2="490.085" gradientUnits="userSpaceOnUse">
<stop stop-color="#490664"/>
<stop offset="1" stop-color="#490664" stop-opacity="0"/>
</linearGradient>
<linearGradient id="paint9_linear_273_19" x1="184.096" y1="618.47" x2="245.271" y2="437.481" gradientUnits="userSpaceOnUse">
<stop stop-color="#421080"/>
<stop offset="1" stop-color="#FC5432"/>
</linearGradient>
<linearGradient id="paint10_linear_273_19" x1="194.431" y1="368.87" x2="173.71" y2="561.554" gradientUnits="userSpaceOnUse">
<stop stop-color="#490664"/>
<stop offset="1" stop-color="#490664" stop-opacity="0"/>
</linearGradient>
<linearGradient id="paint11_linear_273_19" x1="-87.4852" y1="541.865" x2="83.6889" y2="304.564" gradientUnits="userSpaceOnUse">
<stop stop-color="#421080"/>
<stop offset="1" stop-color="#FC5432"/>
</linearGradient>
<linearGradient id="paint12_linear_273_19" x1="61.1083" y1="184.046" x2="-72.7341" y2="290.477" gradientUnits="userSpaceOnUse">
<stop stop-color="#490664"/>
<stop offset="1" stop-color="#490664" stop-opacity="0"/>
</linearGradient>
<linearGradient id="paint13_linear_273_19" x1="-423.299" y1="131.194" x2="303.914" y2="48.064" gradientUnits="userSpaceOnUse">
<stop stop-color="#F6D922"/>
<stop offset="1" stop-color="#F15215"/>
</linearGradient>
<linearGradient id="paint14_linear_273_19" x1="179.647" y1="0.154733" x2="213.408" y2="112.867" gradientUnits="userSpaceOnUse">
<stop stop-color="#F04514"/>
<stop offset="1" stop-color="#F04514" stop-opacity="0"/>
</linearGradient>
<linearGradient id="paint15_linear_273_19" x1="357.441" y1="158.535" x2="217.422" y2="412.897" gradientUnits="userSpaceOnUse">
<stop stop-color="#F04514"/>
<stop offset="1" stop-color="#8E278F" stop-opacity="0"/>
</linearGradient>
<linearGradient id="paint16_linear_273_19" x1="359.269" y1="121.095" x2="400.936" y2="55.6278" gradientUnits="userSpaceOnUse">
<stop stop-color="#FC5432"/>
<stop offset="1" stop-color="#F6D922"/>
</linearGradient>
</defs>
</svg>
