<svg width="56" height="56" viewBox="0 0 56 56" fill="none" xmlns="http://www.w3.org/2000/svg">
<path fill-rule="evenodd" clip-rule="evenodd" d="M40.4183 20.1922L45.7865 26.5833L46 12.9486L40.4183 20.1922Z" fill="#075640"/>
<path fill-rule="evenodd" clip-rule="evenodd" d="M11 27.6526L19.3776 38.0893L17.2273 29.0225L11 27.6526Z" fill="#9CE5A8"/>
<path fill-rule="evenodd" clip-rule="evenodd" d="M28.9519 48.1121L28.2964 52L21.9499 48.8413L28.9519 48.1121Z" fill="#0CA46D"/>
<path fill-rule="evenodd" clip-rule="evenodd" d="M19.3776 38.0892L28.9519 48.112L21.9499 48.8413L19.3776 38.0892Z" fill="#057F59"/>
<path fill-rule="evenodd" clip-rule="evenodd" d="M28.9867 36.9214L28.9519 48.112L19.3776 38.0892L28.9867 36.9214Z" fill="#0CA46D"/>
<path fill-rule="evenodd" clip-rule="evenodd" d="M28.9519 48.1121L33.7142 49.0532L28.2964 52L28.9519 48.1121Z" fill="#075640"/>
<path fill-rule="evenodd" clip-rule="evenodd" d="M37.1954 38.0893L45.7865 26.5833L40.4183 20.1921L37.1954 38.0893Z" fill="#036B4B"/>
<path fill-rule="evenodd" clip-rule="evenodd" d="M28.9867 36.9214L37.1954 38.0893L40.4183 20.1921L28.9867 36.9214Z" fill="#057F59"/>
<path fill-rule="evenodd" clip-rule="evenodd" d="M17.2273 29.0224L28.9867 36.9214L40.4183 20.1921L17.2273 29.0224Z" fill="#00A46B"/>
<path fill-rule="evenodd" clip-rule="evenodd" d="M40.4183 20.1922L21.9499 4.2858L35.0501 4L40.4183 20.1922Z" fill="#0AB878"/>
<path fill-rule="evenodd" clip-rule="evenodd" d="M46 12.9486L35.0501 4L40.4183 20.1922L46 12.9486Z" fill="#00A46B"/>
<path fill-rule="evenodd" clip-rule="evenodd" d="M17.2273 29.0224L21.9499 4.28577L11.2136 13.1604L17.2273 29.0224Z" fill="#9CE5A8"/>
<path fill-rule="evenodd" clip-rule="evenodd" d="M40.4183 20.1921L21.9499 4.28577L17.2273 29.0224L40.4183 20.1921Z" fill="#5FD68F"/>
<path fill-rule="evenodd" clip-rule="evenodd" d="M33.7142 49.0532L37.1954 38.0892L28.9519 48.112L33.7142 49.0532Z" fill="#036B4B"/>
<path fill-rule="evenodd" clip-rule="evenodd" d="M37.1954 38.0892L28.9867 36.9214L28.9519 48.112L37.1954 38.0892Z" fill="#099669"/>
<path fill-rule="evenodd" clip-rule="evenodd" d="M28.9867 36.9214L17.2273 29.0225L19.3776 38.0893L28.9867 36.9214Z" fill="#0AB878"/>
<path fill-rule="evenodd" clip-rule="evenodd" d="M11 27.6527L17.2273 29.0225L11.2135 13.1605L11 27.6527Z" fill="#5FD68F"/>
</svg>
