<svg width="32" height="32" viewBox="0 0 32 32" fill="none" xmlns="http://www.w3.org/2000/svg">
<path d="M16.0001 6.78652V26.0399M25.6267 16.4132H6.37341M25.7627 8.85452C20.6027 13.9425 11.3987 13.9425 6.23875 8.85452M25.7627 8.85452C26.5797 9.66004 27.9038 9.65991 28.7207 8.85439C29.5377 8.04887 29.5377 6.74285 28.7207 5.93733C27.9038 5.13181 26.5792 5.13181 25.7622 5.93733C24.9452 6.74285 24.9458 8.049 25.7627 8.85452ZM6.23875 8.85452C7.05572 8.049 7.05499 6.74285 6.23801 5.93733C5.42104 5.13181 4.09646 5.13181 3.27948 5.93733C2.4625 6.74285 2.4625 8.04886 3.27948 8.85439C4.09645 9.65991 5.42177 9.66004 6.23875 8.85452ZM6.23741 24.4785C11.3974 19.3905 20.6014 19.3905 25.7614 24.4785M6.23741 24.4785C7.05439 25.284 7.05499 26.5902 6.23801 27.3957C5.42104 28.2012 4.09645 28.2012 3.27948 27.3957C2.4625 26.5902 2.4625 25.2842 3.27948 24.4787C4.09646 23.6731 5.42044 23.673 6.23741 24.4785ZM25.7614 24.4785C24.9444 25.284 24.9452 26.5902 25.7622 27.3957C26.5792 28.2012 27.9038 28.2012 28.7207 27.3957C29.5377 26.5902 29.5377 25.2842 28.7207 24.4787C27.9038 23.6731 26.5784 23.673 25.7614 24.4785ZM22.8071 9.6101C26.5666 13.3696 26.5666 19.4648 22.8071 23.2242C19.0477 26.9837 12.9524 26.9837 9.19301 23.2242C5.43356 19.4648 5.43356 13.3695 9.19301 9.6101C12.9525 5.85065 19.0477 5.85065 22.8071 9.6101Z" stroke="url(#paint0_linear_374_42)" stroke-linecap="round" stroke-linejoin="round"/>
<defs>
<linearGradient id="paint0_linear_374_42" x1="36.0002" y1="-0.963109" x2="7.34613" y2="37.0512" gradientUnits="userSpaceOnUse">
<stop stop-color="#F6D922"/>
<stop offset="1" stop-color="#F04514"/>
</linearGradient>
</defs>
</svg>
