<svg width="32" height="32" viewBox="0 0 32 32" fill="none" xmlns="http://www.w3.org/2000/svg">
<path d="M9.33333 26.6667V18.6667C9.33333 17.9307 8.736 17.3334 8 17.3334H5.33333C4.59733 17.3334 4 17.9307 4 18.6667V26.6667C4 27.4027 4.59733 28 5.33333 28H8C8.736 28 9.33333 27.4027 9.33333 26.6667ZM9.33333 26.6667H11.344C11.78 26.6667 12.2133 26.72 12.636 26.8267L16.1693 27.7094C16.936 27.9014 17.7347 27.92 18.5093 27.7654L22.416 26.984C23.448 26.7774 24.3973 26.2694 25.1413 25.5254L27.9053 22.7614C28.6947 21.9734 28.6947 20.6947 27.9053 19.9054C27.1947 19.1947 26.0693 19.1147 25.2653 19.7174L22.044 22.1334C21.5827 22.48 21.0213 22.6667 20.444 22.6667H17.3333H19.3133C20.4293 22.6667 21.3333 21.7627 21.3333 20.6467V20.2427C21.3333 19.316 20.7027 18.508 19.804 18.284L16.748 17.52C16.2507 17.396 15.7413 17.3334 15.2293 17.3334C13.9933 17.3334 12.784 17.6987 11.756 18.3854L9.33333 20M19.508 5.83335C19.384 5.08002 19.04 4.35602 18.4587 3.77469C16.9813 2.29735 14.5853 2.29735 13.108 3.77469C11.6307 5.25202 11.6307 7.64802 13.108 9.12535C14.028 10.0454 15.3027 10.3907 16.4907 10.1654M22.8917 6.87366C24.3695 8.35141 24.3695 10.7473 22.8917 12.225C21.414 13.7028 19.0181 13.7028 17.5403 12.225C16.0626 10.7473 16.0626 8.35141 17.5403 6.87366C19.0181 5.39591 21.414 5.39591 22.8917 6.87366Z" stroke="url(#paint0_linear_374_64)" stroke-linecap="round" stroke-linejoin="round"/>
<defs>
<linearGradient id="paint0_linear_374_64" x1="34.6217" y1="-4.37036" x2="1.43308" y2="31.82" gradientUnits="userSpaceOnUse">
<stop stop-color="#F6D922"/>
<stop offset="1" stop-color="#F04514"/>
</linearGradient>
</defs>
</svg>
