<svg width="56" height="56" viewBox="0 0 56 56" fill="none" xmlns="http://www.w3.org/2000/svg">
<path fill-rule="evenodd" clip-rule="evenodd" d="M8.35986 20.0797L28 46.3933V20.0797H8.35986Z" fill="#B38B0E"/>
<path fill-rule="evenodd" clip-rule="evenodd" d="M28 46.3933L0 20.0797H8.3599L28 46.3933Z" fill="#E6AF24"/>
<path fill-rule="evenodd" clip-rule="evenodd" d="M8.3599 20.0797H0L8.66838 12.851L8.3599 20.0797Z" fill="#F7C947"/>
<path fill-rule="evenodd" clip-rule="evenodd" d="M8.35986 20.0797L8.66835 12.8509L15.6504 9L18.5964 12.563L8.35986 20.0797Z" fill="#FCC72C"/>
<path fill-rule="evenodd" clip-rule="evenodd" d="M8.66833 12.8509L13.1105 9.1491L15.6503 9L8.66833 12.8509Z" fill="#F7C947"/>
<path fill-rule="evenodd" clip-rule="evenodd" d="M18.5964 12.563L15.6504 9H28L18.5964 12.563Z" fill="#F7C947"/>
<path fill-rule="evenodd" clip-rule="evenodd" d="M18.5964 12.563L8.35986 20.0797H28L18.5964 12.563Z" fill="#D1970B"/>
<path fill-rule="evenodd" clip-rule="evenodd" d="M28 20.0797V46.3933L47.6401 20.0797H28Z" fill="#7A6A01"/>
<path fill-rule="evenodd" clip-rule="evenodd" d="M28 46.3933L56 20.0797H47.6401L28 46.3933Z" fill="#B08900"/>
<path fill-rule="evenodd" clip-rule="evenodd" d="M47.6402 20.0797H56.0001L47.3265 12.851L47.6402 20.0797Z" fill="#C6940D"/>
<path fill-rule="evenodd" clip-rule="evenodd" d="M47.6401 20.0797L47.3265 12.8509L40.3496 9L37.3984 12.563L47.6401 20.0797Z" fill="#E6B514"/>
<path fill-rule="evenodd" clip-rule="evenodd" d="M47.3265 12.8509L42.8895 9.1491L40.3496 9L47.3265 12.8509Z" fill="#BC9008"/>
<path fill-rule="evenodd" clip-rule="evenodd" d="M37.3985 12.563L40.3496 9H28L37.3985 12.563Z" fill="#F7C947"/>
<path fill-rule="evenodd" clip-rule="evenodd" d="M37.3985 12.563L28 20.0797H47.6401L37.3985 12.563Z" fill="#BF9104"/>
<path fill-rule="evenodd" clip-rule="evenodd" d="M28 9L18.5964 12.563L28 20.0797L37.3985 12.563L28 9Z" fill="#E6AF24"/>
</svg>
