<svg width="20" height="20" viewBox="0 0 20 20" fill="none" xmlns="http://www.w3.org/2000/svg">
<path d="M19.1667 15.8334V14.9201C19.1667 13.7692 18.2342 12.8367 17.0834 12.8367H16.4159M0.833374 15.8334V14.9201C0.833374 13.7692 1.76587 12.8367 2.91671 12.8367H3.58421M14.4492 15.8334V14.4992C14.4492 12.8884 13.1434 11.5826 11.5325 11.5826H8.46671C6.85587 11.5826 5.55004 12.8884 5.55004 14.4992V15.8334M17.3271 7.93635C17.9855 8.59471 17.9855 9.66212 17.3271 10.3205C16.6688 10.9788 15.6014 10.9788 14.943 10.3205C14.2846 9.66211 14.2846 8.59471 14.943 7.93635C15.6014 7.27799 16.6688 7.27799 17.3271 7.93635ZM11.8355 4.92705C12.8493 5.94078 12.8493 7.58437 11.8355 8.59812C10.8218 9.61185 9.17822 9.61185 8.16447 8.59812C7.15074 7.58438 7.15074 5.94079 8.16447 4.92705C9.17821 3.91331 10.8218 3.91331 11.8355 4.92705ZM5.05711 7.93635C5.71547 8.59471 5.71547 9.66212 5.05711 10.3205C4.39875 10.9788 3.33134 10.9788 2.67298 10.3205C2.01462 9.66211 2.01462 8.59471 2.67298 7.93635C3.33134 7.27799 4.39875 7.27799 5.05711 7.93635Z" stroke="url(#paint0_linear_261_7074)" stroke-linecap="round" stroke-linejoin="round"/>
<defs>
<linearGradient id="paint0_linear_261_7074" x1="23.7501" y1="0.926003" x2="10.6172" y2="24.1979" gradientUnits="userSpaceOnUse">
<stop stop-color="#F6D922"/>
<stop offset="1" stop-color="#F04514"/>
</linearGradient>
</defs>
</svg>
