<svg width="20" height="20" viewBox="0 0 20 20" fill="none" xmlns="http://www.w3.org/2000/svg">
<path d="M2.50084 7.5C2.50084 8.42083 4.36584 9.16667 6.66751 9.16667M6.66668 12.5C4.36584 12.5 2.50084 11.7542 2.50084 10.8333M10.8325 4.16667L10.8333 6.66667M10.8325 4.16667C10.8325 5.08714 8.96785 5.83333 6.66667 5.83333C4.36548 5.83333 2.5 5.08714 2.5 4.16667M10.8325 4.16667C10.8325 3.24619 8.96785 2.5 6.66667 2.5C4.36548 2.5 2.5 3.24619 2.5 4.16667M9.16751 13.3333C9.16751 14.2542 11.0325 15 13.3342 15C15.6358 15 17.5008 14.2542 17.5008 13.3333M9.16751 10C9.16751 10.9208 11.0325 11.6667 13.3342 11.6667C15.6358 11.6667 17.5008 10.9208 17.5008 10L17.5 16.6667C17.5 17.5875 15.6358 18.3333 13.3342 18.3333C11.0325 18.3333 9.16751 17.5875 9.16751 16.6667V10ZM9.16751 10C9.16584 9.07917 11.0334 8.33333 13.3334 8.33333C15.6334 8.33333 17.5 9.07917 17.4983 10M6.66667 15.8333C4.36583 15.8333 2.5 15.0875 2.5 14.1667V4.16667" stroke="url(#paint0_linear_261_6966)" stroke-linecap="round" stroke-linejoin="round"/>
<defs>
<linearGradient id="paint0_linear_261_6966" x1="21.2511" y1="-1.89815" x2="0.475831" y2="20.2975" gradientUnits="userSpaceOnUse">
<stop stop-color="#F6D922"/>
<stop offset="1" stop-color="#F04514"/>
</linearGradient>
</defs>
</svg>
