<svg width="40" height="40" viewBox="0 0 40 40" fill="none" xmlns="http://www.w3.org/2000/svg">
<path d="M13.3333 6.5L10.8333 9M13.3333 6.5L10.8333 4M13.3333 6.5H10C7.23833 6.5 5 8.73833 5 11.5M26.6667 33.1667L29.1667 30.6667M26.6667 33.1667L29.1667 35.6667M26.6667 33.1667H30C32.7617 33.1667 35 30.9283 35 28.1667M29.7367 22.9033C30.0517 22.6717 30.3633 22.4333 30.6483 22.1483C34.2133 18.5833 34.2133 12.75 30.6483 9.185C27.0833 5.62 21.25 5.62 17.685 9.185C17.4017 9.46833 17.1583 9.77667 16.9217 10.0883M15.8333 33.1667C20.875 33.1667 25 29.0417 25 24C25 18.9583 20.875 14.8333 15.8333 14.8333C10.7917 14.8333 6.66667 18.9583 6.66667 24C6.66667 26.0567 7.36167 27.955 8.51667 29.4867C10.1917 31.715 12.8483 33.1667 15.8333 33.1667Z" stroke="url(#paint0_linear_261_3536)" stroke-width="1.5" stroke-linecap="round" stroke-linejoin="round"/>
<defs>
<linearGradient id="paint0_linear_261_3536" x1="42.5" y1="-4.79631" x2="0.949403" y2="39.5926" gradientUnits="userSpaceOnUse">
<stop stop-color="#F6D922"/>
<stop offset="1" stop-color="#F04514"/>
</linearGradient>
</defs>
</svg>
