<svg width="56" height="56" viewBox="0 0 56 56" fill="none" xmlns="http://www.w3.org/2000/svg">
<path fill-rule="evenodd" clip-rule="evenodd" d="M10.3658 19.0816L2 18.6405L4.35906 32.557L10.3658 19.0816Z" fill="#E07117"/>
<path fill-rule="evenodd" clip-rule="evenodd" d="M27.9497 31.2487L13.7408 39.659L28.8318 48L27.9497 31.2487Z" fill="#AA3205"/>
<path fill-rule="evenodd" clip-rule="evenodd" d="M10.3658 19.0817L4.35907 32.5571L13.7408 39.659L10.3658 19.0817Z" fill="#E0510E"/>
<path fill-rule="evenodd" clip-rule="evenodd" d="M27.9497 31.2487L10.3658 19.0817L13.7408 39.659L27.9497 31.2487Z" fill="#C93E06"/>
<path fill-rule="evenodd" clip-rule="evenodd" d="M27.9497 31.2487L40.8849 36.8193L44.9736 19.6665L27.9497 31.2487Z" fill="#AA2E03"/>
<path fill-rule="evenodd" clip-rule="evenodd" d="M44.9736 19.6665L40.8849 36.8193L47.4169 35.5258L44.9736 19.6665Z" fill="#992801"/>
<path fill-rule="evenodd" clip-rule="evenodd" d="M27.9497 31.2487L28.8319 48L40.8849 36.8192L27.9497 31.2487Z" fill="#8E2100"/>
<path fill-rule="evenodd" clip-rule="evenodd" d="M44.9736 19.6665L47.4169 35.5257L54.3554 21.6985L44.9736 19.6665Z" fill="#7A1D00"/>
<path fill-rule="evenodd" clip-rule="evenodd" d="M12.7992 8.60962L2 18.6406L10.3658 19.0817L12.7992 8.60962Z" fill="#E09A34"/>
<path fill-rule="evenodd" clip-rule="evenodd" d="M28.1876 14.5221L12.7992 8.60962L10.3658 19.0817L28.1876 14.5221Z" fill="#E05D16"/>
<path fill-rule="evenodd" clip-rule="evenodd" d="M10.3658 19.0816L27.9497 31.2486L28.1876 14.5221L10.3658 19.0816Z" fill="#E04F0E"/>
<path fill-rule="evenodd" clip-rule="evenodd" d="M27.9497 31.2486L44.9736 19.6664L28.1876 14.5221L27.9497 31.2486Z" fill="#DD440A"/>
<path fill-rule="evenodd" clip-rule="evenodd" d="M28.1876 14.5221L44.9736 19.6665L43.4472 8L28.1876 14.5221Z" fill="#E04E14"/>
<path fill-rule="evenodd" clip-rule="evenodd" d="M43.4471 8L44.9736 19.6665L54.3553 21.6984L43.4471 8Z" fill="#C23C0A"/>
<path fill-rule="evenodd" clip-rule="evenodd" d="M40.8849 36.8192L28.8318 47.9999L47.4169 35.5256L40.8849 36.8192Z" fill="#C43E09"/>
</svg>
