<svg width="24" height="24" viewBox="0 0 24 24" fill="none" xmlns="http://www.w3.org/2000/svg">
<path d="M20 15.5H18C16.895 15.5 16 14.605 16 13.5C16 12.395 16.895 11.5 18 11.5H20M20 15.5C20.552 15.5 21 15.052 21 14.5V12.5C21 11.948 20.552 11.5 20 11.5M20 15.5V18.5C20 19.605 19.105 20.5 18 20.5H5C3.895 20.5 3 19.605 3 18.5V5M20 11.5V8.5C20 7.395 19.105 6.5 18 6.5H4.5C3.672 6.5 3 5.828 3 5M3 5C3 4.172 3.672 3.5 4.5 3.5H17" stroke="url(#paint0_linear_371_616)" stroke-linecap="round" stroke-linejoin="round"/>
<defs>
<linearGradient id="paint0_linear_371_616" x1="25.5" y1="-1.22223" x2="3.49201" y2="25.0552" gradientUnits="userSpaceOnUse">
<stop stop-color="#F6D922"/>
<stop offset="1" stop-color="#F04514"/>
</linearGradient>
</defs>
</svg>
