<svg width="32" height="32" viewBox="0 0 32 32" fill="none" xmlns="http://www.w3.org/2000/svg">
<path d="M16 21.2H5.20002C3.80002 21.2 2.66669 20.0667 2.66669 18.6667V6.53333C2.66669 5.13333 3.80002 4 5.20002 4H25.4667C26.8667 4 28 5.13333 28 6.53333V13.3333M29.3334 22.4V18.6667M29.3334 18.6667C29.3334 17.6347 27.2427 16.8 24.6667 16.8C22.0907 16.8 20.0014 17.636 20 18.6667V26.1333C20.0014 27.164 22.0894 28 24.6667 28C27.244 28 29.332 27.164 29.3334 26.1333V18.6667ZM29.3334 18.6667C29.3334 19.6973 27.2454 20.5333 24.668 20.5333C22.0907 20.5333 20.0014 19.6973 20.0014 18.6667M20.0014 22.4C20.0014 23.4307 22.0907 24.2667 24.668 24.2667C27.2454 24.2667 29.3347 23.4307 29.3347 22.4M8.00002 17.3333H6.66669M24 8H22.6667M17.572 10.628C18.808 11.864 18.808 13.8693 17.572 15.1067C16.336 16.3427 14.3307 16.3427 13.0934 15.1067C11.8574 13.8707 11.8574 11.8653 13.0934 10.628C14.3307 9.39067 16.336 9.39067 17.572 10.628Z" stroke="url(#paint0_linear_374_96)" stroke-linecap="round" stroke-linejoin="round"/>
<defs>
<linearGradient id="paint0_linear_374_96" x1="36.0017" y1="-2.66667" x2="5.22807" y2="35.8933" gradientUnits="userSpaceOnUse">
<stop stop-color="#F6D922"/>
<stop offset="1" stop-color="#F04514"/>
</linearGradient>
</defs>
</svg>
