<svg width="48" height="9" viewBox="0 0 48 9" fill="none" xmlns="http://www.w3.org/2000/svg">
<path d="M0.5 4C0.223858 4 0 4.22386 0 4.5C0 4.77614 0.223858 5 0.5 5V4ZM47.8536 4.85355C48.0488 4.65829 48.0488 4.34171 47.8536 4.14645L44.6716 0.964466C44.4763 0.769204 44.1597 0.769204 43.9645 0.964466C43.7692 1.15973 43.7692 1.47631 43.9645 1.67157L46.7929 4.5L43.9645 7.32843C43.7692 7.52369 43.7692 7.84027 43.9645 8.03553C44.1597 8.2308 44.4763 8.2308 44.6716 8.03553L47.8536 4.85355ZM0.5 5H1.47917V4H0.5V5ZM5.39583 5H7.35417V4H5.39583V5ZM11.2708 5H13.2292V4H11.2708V5ZM17.1458 5H19.1042V4H17.1458V5ZM23.0208 5H24.9792V4H23.0208V5ZM28.8958 5H30.8542V4H28.8958V5ZM34.7708 5H36.7292V4H34.7708V5ZM40.6458 5H42.6042V4H40.6458V5ZM46.5208 5H47.5V4H46.5208V5Z" fill="#ADF833"/>
</svg>
