<svg width="1290" height="321" viewBox="0 0 1290 321" fill="none" xmlns="http://www.w3.org/2000/svg">
<path d="M1245 0.5C1244.72 0.5 1244.5 0.723858 1244.5 1C1244.5 1.27614 1244.72 1.5 1245 1.5V0.5ZM45.3536 317.354C45.5488 317.158 45.5488 316.842 45.3536 316.646L42.1716 313.464C41.9763 313.269 41.6597 313.269 41.4645 313.464C41.2692 313.66 41.2692 313.976 41.4645 314.172L44.2929 317L41.4645 319.828C41.2692 320.024 41.2692 320.34 41.4645 320.536C41.6597 320.731 41.9763 320.731 42.1716 320.536L45.3536 317.354ZM45 316.5H44V317.5H45V316.5ZM40 316.5H38V317.5H40V316.5ZM34 316.5H32V317.5H34V316.5ZM28 316.5H26V317.5H28V316.5ZM22 316.5H20V317.5H22V316.5ZM16 316.5H14V317.5H16V316.5ZM10 316.5H9V317.5H10V316.5ZM9 316.5C8.66755 316.5 8.34039 316.478 8.0198 316.437L7.89045 317.428C8.25382 317.476 8.62418 317.5 9 317.5V316.5ZM4.43439 314.951C3.91464 314.551 3.44867 314.085 3.04926 313.566L2.25634 314.175C2.70871 314.764 3.2364 315.291 3.82506 315.744L4.43439 314.951ZM1.56342 309.98C1.5216 309.66 1.5 309.332 1.5 309H0.5C0.5 309.376 0.524421 309.746 0.571818 310.11L1.56342 309.98ZM1.5 309V308.014H0.5V309H1.5ZM1.5 304.069V302.097H0.5V304.069H1.5ZM1.5 298.153V296.181H0.5V298.153H1.5ZM1.5 292.236V290.264H0.5V292.236H1.5ZM1.5 286.319V284.347H0.5V286.319H1.5ZM1.5 280.403V278.431H0.5V280.403H1.5ZM1.5 274.486V272.514H0.5V274.486H1.5ZM1.5 268.569V266.597H0.5V268.569H1.5ZM1.5 262.653V260.681H0.5V262.653H1.5ZM1.5 256.736V254.764H0.5V256.736H1.5ZM1.5 250.819V248.847H0.5V250.819H1.5ZM1.5 244.903V242.931H0.5V244.903H1.5ZM1.5 238.986V237.014H0.5V238.986H1.5ZM1.5 233.069V231.097H0.5V233.069H1.5ZM1.5 227.153V225.181H0.5V227.153H1.5ZM1.5 221.236V219.264H0.5V221.236H1.5ZM1.5 215.319V213.347H0.5V215.319H1.5ZM1.5 209.403V207.431H0.5V209.403H1.5ZM1.5 203.486V201.514H0.5V203.486H1.5ZM1.5 197.569V195.597H0.5V197.569H1.5ZM1.5 191.653V189.681H0.5V191.653H1.5ZM1.5 185.736V183.764H0.5V185.736H1.5ZM1.5 179.819V177.847H0.5V179.819H1.5ZM1.5 173.903V171.931H0.5V173.903H1.5ZM1.5 167.986V167H0.5V167.986H1.5ZM1.5 167C1.5 166.668 1.5216 166.34 1.56342 166.02L0.571818 165.89C0.524421 166.254 0.5 166.624 0.5 167H1.5ZM3.04925 162.434C3.44866 161.915 3.91463 161.449 4.43438 161.049L3.82505 160.256C3.23639 160.709 2.70869 161.236 2.25633 161.825L3.04925 162.434ZM8.01978 159.563C8.34036 159.522 8.66752 159.5 8.99998 159.5V158.5C8.62416 158.5 8.25379 158.524 7.89043 158.572L8.01978 159.563ZM8.99998 159.5H9.99998V158.5H8.99998V159.5ZM14 159.5H16V158.5H14V159.5ZM20 159.5H22V158.5H20V159.5ZM26 159.5H28V158.5H26V159.5ZM32 159.5H34V158.5H32V159.5ZM38 159.5H40V158.5H38V159.5ZM44 159.5H46V158.5H44V159.5ZM50 159.5H52V158.5H50V159.5ZM56 159.5H58V158.5H56V159.5ZM62 159.5H64V158.5H62V159.5ZM68 159.5H70V158.5H68V159.5ZM74 159.5H76V158.5H74V159.5ZM80 159.5H82V158.5H80V159.5ZM86 159.5H88V158.5H86V159.5ZM92 159.5H94V158.5H92V159.5ZM98 159.5H100V158.5H98V159.5ZM104 159.5H106V158.5H104V159.5ZM110 159.5H112V158.5H110V159.5ZM116 159.5H118V158.5H116V159.5ZM122 159.5H124V158.5H122V159.5ZM128 159.5H130V158.5H128V159.5ZM134 159.5H136V158.5H134V159.5ZM140 159.5H142V158.5H140V159.5ZM146 159.5H148V158.5H146V159.5ZM152 159.5H154V158.5H152V159.5ZM158 159.5H160V158.5H158V159.5ZM164 159.5H166V158.5H164V159.5ZM170 159.5H172V158.5H170V159.5ZM176 159.5H178V158.5H176V159.5ZM182 159.5H184V158.5H182V159.5ZM188 159.5H190V158.5H188V159.5ZM194 159.5H196V158.5H194V159.5ZM200 159.5H202V158.5H200V159.5ZM206 159.5H208V158.5H206V159.5ZM212 159.5H214V158.5H212V159.5ZM218 159.5H220V158.5H218V159.5ZM224 159.5H226V158.5H224V159.5ZM230 159.5H232V158.5H230V159.5ZM236 159.5H238V158.5H236V159.5ZM242 159.5H244V158.5H242V159.5ZM248 159.5H250V158.5H248V159.5ZM254 159.5H256V158.5H254V159.5ZM260 159.5H262V158.5H260V159.5ZM266 159.5H268V158.5H266V159.5ZM272 159.5H274V158.5H272V159.5ZM278 159.5H280V158.5H278V159.5ZM284 159.5H286V158.5H284V159.5ZM290 159.5H292V158.5H290V159.5ZM296 159.5H298V158.5H296V159.5ZM302 159.5H304V158.5H302V159.5ZM308 159.5H310V158.5H308V159.5ZM314 159.5H316V158.5H314V159.5ZM320 159.5H322V158.5H320V159.5ZM326 159.5H328V158.5H326V159.5ZM332 159.5H334V158.5H332V159.5ZM338 159.5H340V158.5H338V159.5ZM344 159.5H346V158.5H344V159.5ZM350 159.5H352V158.5H350V159.5ZM356 159.5H358V158.5H356V159.5ZM362 159.5H364V158.5H362V159.5ZM368 159.5H370V158.5H368V159.5ZM374 159.5H376V158.5H374V159.5ZM380 159.5H382V158.5H380V159.5ZM386 159.5H388V158.5H386V159.5ZM392 159.5H394V158.5H392V159.5ZM398 159.5H400V158.5H398V159.5ZM404 159.5H406V158.5H404V159.5ZM410 159.5H412V158.5H410V159.5ZM416 159.5H418V158.5H416V159.5ZM422 159.5H424V158.5H422V159.5ZM428 159.5H430V158.5H428V159.5ZM434 159.5H436V158.5H434V159.5ZM440 159.5H442V158.5H440V159.5ZM446 159.5H448V158.5H446V159.5ZM452 159.5H454V158.5H452V159.5ZM458 159.5H460V158.5H458V159.5ZM464 159.5H466V158.5H464V159.5ZM470 159.5H472V158.5H470V159.5ZM476 159.5H478V158.5H476V159.5ZM482 159.5H484V158.5H482V159.5ZM488 159.5H490V158.5H488V159.5ZM494 159.5H496V158.5H494V159.5ZM500 159.5H502V158.5H500V159.5ZM506 159.5H508V158.5H506V159.5ZM512 159.5H514V158.5H512V159.5ZM518 159.5H520V158.5H518V159.5ZM524 159.5H526V158.5H524V159.5ZM530 159.5H532V158.5H530V159.5ZM536 159.5H538V158.5H536V159.5ZM542 159.5H544V158.5H542V159.5ZM548 159.5H550V158.5H548V159.5ZM554 159.5H556V158.5H554V159.5ZM560 159.5H562V158.5H560V159.5ZM566 159.5H568V158.5H566V159.5ZM572 159.5H574V158.5H572V159.5ZM578 159.5H580V158.5H578V159.5ZM584 159.5H586V158.5H584V159.5ZM590 159.5H592V158.5H590V159.5ZM596 159.5H598V158.5H596V159.5ZM602 159.5H604V158.5H602V159.5ZM608 159.5H610V158.5H608V159.5ZM614 159.5H616V158.5H614V159.5ZM620 159.5H622V158.5H620V159.5ZM626 159.5H628V158.5H626V159.5ZM632 159.5H634V158.5H632V159.5ZM638 159.5H640V158.5H638V159.5ZM644 159.5H646V158.5H644V159.5ZM650 159.5H652V158.5H650V159.5ZM656 159.5H658V158.5H656V159.5ZM662 159.5H664V158.5H662V159.5ZM668 159.5H670V158.5H668V159.5ZM674 159.5H676V158.5H674V159.5ZM680 159.5H682V158.5H680V159.5ZM686 159.5H688V158.5H686V159.5ZM692 159.5H694V158.5H692V159.5ZM698 159.5H700V158.5H698V159.5ZM704 159.5H706V158.5H704V159.5ZM710 159.5H712V158.5H710V159.5ZM716 159.5H718V158.5H716V159.5ZM722 159.5H724V158.5H722V159.5ZM728 159.5H730V158.5H728V159.5ZM734 159.5H736V158.5H734V159.5ZM740 159.5H742V158.5H740V159.5ZM746 159.5H748V158.5H746V159.5ZM752 159.5H754V158.5H752V159.5ZM758 159.5H760V158.5H758V159.5ZM764 159.5H766V158.5H764V159.5ZM770 159.5H772V158.5H770V159.5ZM776 159.5H778V158.5H776V159.5ZM782 159.5H784V158.5H782V159.5ZM788 159.5H790V158.5H788V159.5ZM794 159.5H796V158.5H794V159.5ZM800 159.5H802V158.5H800V159.5ZM806 159.5H808V158.5H806V159.5ZM812 159.5H814V158.5H812V159.5ZM818 159.5H820V158.5H818V159.5ZM824 159.5H826V158.5H824V159.5ZM830 159.5H832V158.5H830V159.5ZM836 159.5H838V158.5H836V159.5ZM842 159.5H844V158.5H842V159.5ZM848 159.5H850V158.5H848V159.5ZM854 159.5H856V158.5H854V159.5ZM860 159.5H862V158.5H860V159.5ZM866 159.5H868V158.5H866V159.5ZM872 159.5H874V158.5H872V159.5ZM878 159.5H880V158.5H878V159.5ZM884 159.5H886V158.5H884V159.5ZM890 159.5H892V158.5H890V159.5ZM896 159.5H898V158.5H896V159.5ZM902 159.5H904V158.5H902V159.5ZM908 159.5H910V158.5H908V159.5ZM914 159.5H916V158.5H914V159.5ZM920 159.5H922V158.5H920V159.5ZM926 159.5H928V158.5H926V159.5ZM932 159.5H934V158.5H932V159.5ZM938 159.5H940V158.5H938V159.5ZM944 159.5H946V158.5H944V159.5ZM950 159.5H952V158.5H950V159.5ZM956 159.5H958V158.5H956V159.5ZM962 159.5H964V158.5H962V159.5ZM968 159.5H970V158.5H968V159.5ZM974 159.5H976V158.5H974V159.5ZM980 159.5H982V158.5H980V159.5ZM986 159.5H988V158.5H986V159.5ZM992 159.5H994V158.5H992V159.5ZM998 159.5H1000V158.5H998V159.5ZM1004 159.5H1006V158.5H1004V159.5ZM1010 159.5H1012V158.5H1010V159.5ZM1016 159.5H1018V158.5H1016V159.5ZM1022 159.5H1024V158.5H1022V159.5ZM1028 159.5H1030V158.5H1028V159.5ZM1034 159.5H1036V158.5H1034V159.5ZM1040 159.5H1042V158.5H1040V159.5ZM1046 159.5H1048V158.5H1046V159.5ZM1052 159.5H1054V158.5H1052V159.5ZM1058 159.5H1060V158.5H1058V159.5ZM1064 159.5H1066V158.5H1064V159.5ZM1070 159.5H1072V158.5H1070V159.5ZM1076 159.5H1078V158.5H1076V159.5ZM1082 159.5H1084V158.5H1082V159.5ZM1088 159.5H1090V158.5H1088V159.5ZM1094 159.5H1096V158.5H1094V159.5ZM1100 159.5H1102V158.5H1100V159.5ZM1106 159.5H1108V158.5H1106V159.5ZM1112 159.5H1114V158.5H1112V159.5ZM1118 159.5H1120V158.5H1118V159.5ZM1124 159.5H1126V158.5H1124V159.5ZM1130 159.5H1132V158.5H1130V159.5ZM1136 159.5H1138V158.5H1136V159.5ZM1142 159.5H1144V158.5H1142V159.5ZM1148 159.5H1150V158.5H1148V159.5ZM1154 159.5H1156V158.5H1154V159.5ZM1160 159.5H1162V158.5H1160V159.5ZM1166 159.5H1168V158.5H1166V159.5ZM1172 159.5H1174V158.5H1172V159.5ZM1178 159.5H1180V158.5H1178V159.5ZM1184 159.5H1186V158.5H1184V159.5ZM1190 159.5H1192V158.5H1190V159.5ZM1196 159.5H1198V158.5H1196V159.5ZM1202 159.5H1204V158.5H1202V159.5ZM1208 159.5H1210V158.5H1208V159.5ZM1214 159.5H1216V158.5H1214V159.5ZM1220 159.5H1222V158.5H1220V159.5ZM1226 159.5H1228V158.5H1226V159.5ZM1232 159.5H1234V158.5H1232V159.5ZM1238 159.5H1240V158.5H1238V159.5ZM1244 159.5H1246V158.5H1244V159.5ZM1250 159.5H1252V158.5H1250V159.5ZM1256 159.5H1258V158.5H1256V159.5ZM1262 159.5H1264V158.5H1262V159.5ZM1268 159.5H1270V158.5H1268V159.5ZM1274 159.5H1276V158.5H1274V159.5ZM1280 159.5H1281V158.5H1280V159.5ZM1281 159.5C1281.38 159.5 1281.75 159.476 1282.11 159.428L1281.98 158.437C1281.66 158.478 1281.33 158.5 1281 158.5V159.5ZM1286.17 157.744C1286.76 157.291 1287.29 156.764 1287.74 156.175L1286.95 155.566C1286.55 156.085 1286.09 156.551 1285.57 156.951L1286.17 157.744ZM1289.43 152.11C1289.48 151.746 1289.5 151.376 1289.5 151H1288.5C1288.5 151.332 1288.48 151.66 1288.44 151.98L1289.43 152.11ZM1289.5 151V150.014H1288.5V151H1289.5ZM1289.5 146.069V144.097H1288.5V146.069H1289.5ZM1289.5 140.153V138.181H1288.5V140.153H1289.5ZM1289.5 134.236V132.264H1288.5V134.236H1289.5ZM1289.5 128.319V126.347H1288.5V128.319H1289.5ZM1289.5 122.403V120.431H1288.5V122.403H1289.5ZM1289.5 116.486V114.514H1288.5V116.486H1289.5ZM1289.5 110.569V108.597H1288.5V110.569H1289.5ZM1289.5 104.653V102.681H1288.5V104.653H1289.5ZM1289.5 98.7361V96.7639H1288.5V98.7361H1289.5ZM1289.5 92.8195V90.8472H1288.5V92.8195H1289.5ZM1289.5 86.9028V84.9306H1288.5V86.9028H1289.5ZM1289.5 80.9861V79.0139H1288.5V80.9861H1289.5ZM1289.5 75.0695V73.0972H1288.5V75.0695H1289.5ZM1289.5 69.1528V67.1806H1288.5V69.1528H1289.5ZM1289.5 63.2361V61.2639H1288.5V63.2361H1289.5ZM1289.5 57.3195V55.3472H1288.5V57.3195H1289.5ZM1289.5 51.4028V49.4306H1288.5V51.4028H1289.5ZM1289.5 45.4861V43.5139H1288.5V45.4861H1289.5ZM1289.5 39.5695V37.5973H1288.5V39.5695H1289.5ZM1289.5 33.6528V31.6806H1288.5V33.6528H1289.5ZM1289.5 27.7361V25.7639H1288.5V27.7361H1289.5ZM1289.5 21.8195V19.8473H1288.5V21.8195H1289.5ZM1289.5 15.9028V13.9306H1288.5V15.9028H1289.5ZM1289.5 9.98614V9H1288.5V9.98614H1289.5ZM1289.5 9C1289.5 8.62418 1289.48 8.25382 1289.43 7.89045L1288.44 8.0198C1288.48 8.34038 1288.5 8.66754 1288.5 9H1289.5ZM1287.74 3.82506C1287.29 3.2364 1286.76 2.70871 1286.17 2.25634L1285.57 3.04926C1286.09 3.44867 1286.55 3.91464 1286.95 4.43439L1287.74 3.82506ZM1282.11 0.571819C1281.75 0.524421 1281.38 0.5 1281 0.5V1.5C1281.33 1.5 1281.66 1.5216 1281.98 1.56342L1282.11 0.571819ZM1281 0.5H1280V1.5H1281V0.5ZM1276 0.5H1274V1.5H1276V0.5ZM1270 0.5H1268V1.5H1270V0.5ZM1264 0.5H1262V1.5H1264V0.5ZM1258 0.5H1256V1.5H1258V0.5ZM1252 0.5H1250V1.5H1252V0.5ZM1246 0.5H1245V1.5H1246V0.5Z" fill="#ADF833"/>
</svg>
